<svg xmlns="http://www.w3.org/2000/svg" version="1.1" xmlns:xlink="http://www.w3.org/1999/xlink" xmlns:svgjs="http://svgjs.dev/svgjs" width="2000" height="318" viewBox="0 0 2000 318"><g transform="matrix(1,0,0,1,-1.2121212121212466,0.7183159388272315)"><svg viewBox="0 0 396 63" data-background-color="#61777f" preserveAspectRatio="xMidYMid meet" height="318" width="2000" xmlns="http://www.w3.org/2000/svg" xmlns:xlink="http://www.w3.org/1999/xlink"><g id="tight-bounds" transform="matrix(1,0,0,1,0.2400000000000091,-0.14230787467332107)"><svg viewBox="0 0 395.52 63.28461574934666" height="63.28461574934666" width="395.52"><g><svg viewBox="0 0 486.6954351096986 77.87301172602741" height="63.28461574934666" width="395.52"><g transform="matrix(1,0,0,1,0,10.762478465753428)"><svg viewBox="0 0 395.52 56.34805479452056" height="56.34805479452056" width="395.52"><g id="textblocktransform"><svg viewBox="0 0 395.52 56.34805479452056" height="56.34805479452056" width="395.52" id="textblock"><g><svg viewBox="0 0 395.52 56.34805479452056" height="56.34805479452056" width="395.52"><g transform="matrix(1,0,0,1,0,0)"><svg width="395.52" viewBox="0.35 -38.4 273.72999999999996 39" height="56.34805479452056" data-palette-color="#ffffff"><path d="M16.7 0L11 0 11-31.5 0.35-31.5 0.35-36 27.75-36 27.05-31.5 16.7-31.5 16.7 0ZM47.9-25.05L47.9-25.05 47.9-6.35Q47.9-4.6 48.3-4.03 48.7-3.45 50.25-3.45L50.25-3.45 50.45-0.3Q49.2 0.15 47.8 0.15L47.8 0.15Q43.9 0.15 43.15-3.4L43.15-3.4Q40.5 0.6 35.32 0.6 30.15 0.6 27.62-3.25 25.1-7.1 25.1-13.18 25.1-19.25 28.55-23.28 32-27.3 37.8-27.3L37.8-27.3Q40.15-27.3 43.27-26.58 46.4-25.85 47.9-25.05ZM30.8-12.75Q30.8-7.9 32.27-5.75 33.75-3.6 36.55-3.6 39.35-3.6 40.92-5.58 42.5-7.55 42.5-10.45L42.5-10.45 42.5-22.45Q40.55-23.1 38.05-23.1L38.05-23.1Q34.25-23.1 32.52-20.35 30.8-17.6 30.8-12.75ZM54.85-1.35L54.85-1.35 56-5.4Q60.1-3.6 63.05-3.6L63.05-3.6Q68.15-3.6 68.15-7.05L68.15-7.05Q68.15-9.75 63.25-11.55L63.25-11.55Q61.35-12.25 60.4-12.68 59.45-13.1 58.05-14L58.05-14Q55.3-15.8 55.3-19.43 55.3-23.05 57.87-25.13 60.45-27.2 64.85-27.2L64.85-27.2Q69.3-27.2 72.5-25.7L72.5-25.7Q73.1-25.45 73.15-25.45L73.15-25.45 72.1-21.4Q68.45-23 65.6-23L65.6-23Q60.6-23 60.6-19.6L60.6-19.6Q60.6-18.6 61.12-18.07 61.65-17.55 61.95-17.32 62.25-17.1 62.95-16.78 63.65-16.45 63.97-16.32 64.3-16.2 65.2-15.85 66.1-15.5 67.02-15.18 67.95-14.85 68.97-14.3 70-13.75 71.15-12.8L71.15-12.8Q73.45-10.9 73.45-7L73.45-7Q73.45-4.35 71.9-2.6L71.9-2.6Q69.15 0.6 62.7 0.6L62.7 0.6Q58.4 0.6 54.85-1.35ZM86.09-9.95L86.09 0 80.69 0 80.69-37.7 86.09-38.4 86.09-15.6 97.54-27 104.04-26.4 92.69-15.75 98.49-7.55Q101.24-3.7 104.19-3.6L104.19-3.6 104.19 0.25Q103.79 0.35 102.54 0.35L102.54 0.35Q97.49 0.35 94.19-4.5L94.19-4.5 88.84-12.5 86.09-9.95ZM109.94 0L109.94-18.2Q109.94-22.7 109.04-26.3L109.04-26.3 113.24-26.85 114.19-24.35Q118.44-27.3 122.92-27.3 127.39-27.3 129.49-24.4L129.49-24.4Q133.54-27.3 138.17-27.3 142.79-27.3 144.87-24.85 146.94-22.4 146.94-17.5L146.94-17.5 146.94 0 141.54 0 141.54-16.5Q141.54-21.35 139.24-22.55L139.24-22.55Q138.24-23.1 136.69-23.1L136.69-23.1Q134.09-23.1 130.89-20.85L130.89-20.85Q131.19-19.3 131.19-17.5L131.19-17.5 131.19 0 125.79 0 125.79-16.5Q125.79-19.6 124.84-21.35 123.89-23.1 120.99-23.1 118.09-23.1 115.34-20.95L115.34-20.95 115.34 0 109.94 0ZM176.14-25.05L176.14-25.05 176.14-6.35Q176.14-4.6 176.54-4.03 176.94-3.45 178.49-3.45L178.49-3.45 178.69-0.3Q177.44 0.15 176.04 0.15L176.04 0.15Q172.14 0.15 171.39-3.4L171.39-3.4Q168.74 0.6 163.56 0.6 158.39 0.6 155.86-3.25 153.34-7.1 153.34-13.18 153.34-19.25 156.79-23.28 160.24-27.3 166.04-27.3L166.04-27.3Q168.39-27.3 171.51-26.58 174.64-25.85 176.14-25.05ZM159.04-12.75Q159.04-7.9 160.51-5.75 161.99-3.6 164.79-3.6 167.59-3.6 169.16-5.58 170.74-7.55 170.74-10.45L170.74-10.45 170.74-22.45Q168.79-23.1 166.29-23.1L166.29-23.1Q162.49-23.1 160.76-20.35 159.04-17.6 159.04-12.75ZM183.08-1.35L183.08-1.35 184.23-5.4Q188.33-3.6 191.28-3.6L191.28-3.6Q196.38-3.6 196.38-7.05L196.38-7.05Q196.38-9.75 191.48-11.55L191.48-11.55Q189.58-12.25 188.63-12.68 187.69-13.1 186.28-14L186.28-14Q183.53-15.8 183.53-19.43 183.53-23.05 186.11-25.13 188.69-27.2 193.08-27.2L193.08-27.2Q197.53-27.2 200.73-25.7L200.73-25.7Q201.33-25.45 201.38-25.45L201.38-25.45 200.33-21.4Q196.69-23 193.83-23L193.83-23Q188.83-23 188.83-19.6L188.83-19.6Q188.83-18.6 189.36-18.07 189.88-17.55 190.19-17.32 190.48-17.1 191.19-16.78 191.88-16.45 192.21-16.32 192.53-16.2 193.44-15.85 194.33-15.5 195.26-15.18 196.19-14.85 197.21-14.3 198.23-13.75 199.38-12.8L199.38-12.8Q201.69-10.9 201.69-7L201.69-7Q201.69-4.35 200.13-2.6L200.13-2.6Q197.38 0.6 190.94 0.6L190.94 0.6Q186.63 0.6 183.08-1.35ZM209.93-25.75L211.08-32.05 215.33-32.6 215.33-25.75 223.08-25.75 222.48-22.15 215.33-22.15 215.33-8.75Q215.33-6.05 216.16-4.83 216.98-3.6 218.73-3.6 220.48-3.6 222.68-4L222.68-4 223.33-0.35Q220.23 0.6 217.33 0.6L217.33 0.6Q213.28 0.6 211.61-1.55 209.93-3.7 209.93-7.65L209.93-7.65 209.93-22.15 206.18-22.15 206.18-25.25 209.93-25.75ZM247.83-5.7L247.83-5.7 249.68-2.3Q248.83-1.5 246.08-0.45 243.33 0.6 240.18 0.6L240.18 0.6Q234.58 0.6 231.16-2.8 227.73-6.2 227.73-13L227.73-13Q227.73-16.75 228.93-19.63 230.13-22.5 232.03-24.1L232.03-24.1Q235.93-27.3 240.21-27.3 244.48-27.3 247.01-25.13 249.53-22.95 249.53-19.8L249.53-19.8Q249.53-15.65 245.58-13.03 241.63-10.4 232.93-10.4L232.93-10.4Q232.93-8.1 234.86-5.85 236.78-3.6 240.56-3.6 244.33-3.6 247.83-5.7ZM244.68-19.35L244.68-19.35Q244.68-20.85 243.56-21.98 242.43-23.1 240.38-23.1L240.38-23.1Q237.08-23.1 234.96-20.63 232.83-18.15 232.78-14.15L232.78-14.15Q244.68-14.15 244.68-19.35ZM256.83 0L256.83-18.2Q256.83-22.7 255.93-26.3L255.93-26.3 260.13-26.85 261.38-23.6Q264.53-27.3 268.48-27.3L268.48-27.3Q271.13-27.3 272.6-26.05 274.08-24.8 274.08-22.5 274.08-20.2 273.33-18.45L273.33-18.45 269.03-19Q269.03-21.25 268.6-22.18 268.18-23.1 266.85-23.1 265.53-23.1 264.25-22.05 262.98-21 262.23-19.7L262.23-19.7 262.23 0 256.83 0Z" opacity="1" transform="matrix(1,0,0,1,0,0)" fill="#ffffff" class="wordmark-text-0" data-fill-palette-color="primary" id="text-0"></path></svg></g></svg></g></svg></g></svg></g><g transform="matrix(1,0,0,1,408.8224233836712,0)"><svg viewBox="0 0 77.87301172602741 77.87301172602741" height="77.87301172602741" width="77.87301172602741"><g data-palette-color="#ffffff"><rect width="21.285289871780826" height="77.87301172602741" fill="#ffffff" stroke="transparent" data-fill-palette-color="accent" x="0" fill-opacity="1"></rect><rect width="21.285289871780826" height="77.87301172602741" fill="#ffffff" stroke="transparent" data-fill-palette-color="accent" x="25.95767057534247" fill-opacity="0.75"></rect><rect width="21.285289871780826" height="77.87301172602741" fill="#ffffff" stroke="transparent" data-fill-palette-color="accent" x="51.91534115068494" fill-opacity="0.5"></rect></g></svg></g></svg></g><defs></defs></svg><rect width="395.52" height="63.28461574934666" fill="none" stroke="none" visibility="hidden"></rect></g></svg></g></svg>